<svg xmlns="http://www.w3.org/2000/svg" width="1200" height="760" viewBox="0 0 1200 760" fill="none">
  <defs>
    <linearGradient id="bg" x1="86" y1="70" x2="1110" y2="700" gradientUnits="userSpaceOnUse">
      <stop stop-color="#083344"/>
      <stop offset="0.52" stop-color="#0F766E"/>
      <stop offset="1" stop-color="#0EA5E9"/>
    </linearGradient>
    <linearGradient id="card" x1="220" y1="162" x2="980" y2="630" gradientUnits="userSpaceOnUse">
      <stop stop-color="#F8FCFF" stop-opacity="0.98"/>
      <stop offset="1" stop-color="#D9EEFF" stop-opacity="0.95"/>
    </linearGradient>
    <linearGradient id="bar" x1="0" y1="0" x2="1" y2="1">
      <stop stop-color="#0D9488"/>
      <stop offset="1" stop-color="#0EA5E9"/>
    </linearGradient>
    <filter id="shadow" x="120" y="125" width="980" height="560" filterUnits="userSpaceOnUse" color-interpolation-filters="sRGB">
      <feFlood flood-opacity="0" result="BackgroundImageFix"/>
      <feColorMatrix in="SourceAlpha" type="matrix" values="0 0 0 0 0 0 0 0 0 0 0 0 0 0 0 0 0 0 127 0" result="hardAlpha"/>
      <feOffset dy="18"/>
      <feGaussianBlur stdDeviation="26"/>
      <feComposite in2="hardAlpha" operator="out"/>
      <feColorMatrix type="matrix" values="0 0 0 0 0.018 0 0 0 0 0.168 0 0 0 0 0.278 0 0 0 0.25 0"/>
      <feBlend mode="normal" in2="BackgroundImageFix" result="effect1_dropShadow_1_1"/>
      <feBlend mode="normal" in="SourceGraphic" in2="effect1_dropShadow_1_1" result="shape"/>
    </filter>
  </defs>

  <rect width="1200" height="760" rx="46" fill="url(#bg)"/>
  <circle cx="1080" cy="90" r="180" fill="#67E8F9" fill-opacity="0.14"/>
  <circle cx="140" cy="688" r="210" fill="#FDBA74" fill-opacity="0.14"/>

  <g filter="url(#shadow)">
    <rect x="172" y="158" width="856" height="478" rx="30" fill="url(#card)"/>
  </g>

  <rect x="226" y="212" width="250" height="28" rx="14" fill="#1D4ED8" fill-opacity="0.1"/>
  <rect x="494" y="212" width="145" height="28" rx="14" fill="#0EA5E9" fill-opacity="0.18"/>
  <rect x="654" y="212" width="130" height="28" rx="14" fill="#14B8A6" fill-opacity="0.18"/>
  <rect x="802" y="212" width="188" height="28" rx="14" fill="#EA580C" fill-opacity="0.14"/>

  <rect x="226" y="276" width="438" height="226" rx="20" fill="#FFFFFF" fill-opacity="0.98" stroke="#D8E7FA"/>
  <rect x="248" y="298" width="132" height="16" rx="8" fill="#8CB2D8" fill-opacity="0.52"/>
  <rect x="248" y="324" width="76" height="10" rx="5" fill="#A8C5E4" fill-opacity="0.65"/>

  <rect x="248" y="372" width="56" height="108" rx="9" fill="url(#bar)"/>
  <rect x="320" y="338" width="56" height="142" rx="9" fill="url(#bar)"/>
  <rect x="392" y="392" width="56" height="88" rx="9" fill="url(#bar)"/>
  <rect x="464" y="318" width="56" height="162" rx="9" fill="url(#bar)"/>
  <rect x="536" y="354" width="56" height="126" rx="9" fill="url(#bar)"/>

  <rect x="684" y="276" width="306" height="102" rx="18" fill="#FFFFFF" fill-opacity="0.98" stroke="#D8E7FA"/>
  <rect x="706" y="300" width="118" height="12" rx="6" fill="#8CB2D8" fill-opacity="0.58"/>
  <rect x="706" y="326" width="246" height="10" rx="5" fill="#A8C5E4" fill-opacity="0.66"/>
  <rect x="706" y="346" width="176" height="10" rx="5" fill="#A8C5E4" fill-opacity="0.56"/>

  <rect x="684" y="398" width="306" height="104" rx="18" fill="#FFFFFF" fill-opacity="0.98" stroke="#D8E7FA"/>
  <circle cx="727" cy="448" r="20" fill="#D1FAE5"/>
  <path d="M718 448L724 454L736 442" stroke="#0F766E" stroke-width="4" stroke-linecap="round" stroke-linejoin="round"/>
  <rect x="760" y="426" width="120" height="12" rx="6" fill="#8CB2D8" fill-opacity="0.58"/>
  <rect x="760" y="448" width="178" height="10" rx="5" fill="#A8C5E4" fill-opacity="0.64"/>
  <rect x="760" y="468" width="92" height="10" rx="5" fill="#A8C5E4" fill-opacity="0.55"/>

  <rect x="226" y="534" width="764" height="58" rx="14" fill="#FFFFFF" fill-opacity="0.98" stroke="#D8E7FA"/>
  <rect x="252" y="555" width="206" height="12" rx="6" fill="#8CB2D8" fill-opacity="0.55"/>
  <rect x="476" y="555" width="176" height="12" rx="6" fill="#A8C5E4" fill-opacity="0.62"/>
  <rect x="670" y="555" width="128" height="12" rx="6" fill="#A8C5E4" fill-opacity="0.54"/>
  <rect x="816" y="549" width="148" height="24" rx="12" fill="#0EA5E9" fill-opacity="0.2"/>
</svg>
